<?xml version="1.0" encoding="UTF-8"?>
<svg version="1.1" xmlns="http://www.w3.org/2000/svg" width="153" height="148">
<path d="M0 0 C3.17896475 0.06935923 5.42117618 0.44745079 8.125 2.25 C9.115 1.59 10.105 0.93 11.125 0.25 C19.3423913 -0.27173913 19.3423913 -0.27173913 23.125 2.25 C24.115 1.59 25.105 0.93 26.125 0.25 C30.6847248 -0.08775739 34.0032921 0.25159617 38.125 2.25 C38.785 1.59 39.445 0.93 40.125 0.25 C44.86775933 -0.21650092 47.05360438 -0.41962226 51.125 2.125 C53.125 4.25 53.125 4.25 53.125 6.25 C53.71667969 6.27578125 54.30835937 6.3015625 54.91796875 6.328125 C60.17481899 6.70545193 63.30248357 7.30802993 67.125 11.25 C68.47939668 13.95879335 68.19001451 16.25933268 68.125 19.25 C68.805625 18.569375 69.48625 17.88875 70.1875 17.1875 C70.63996094 16.73632812 71.09242187 16.28515625 71.55859375 15.8203125 C72.68091026 14.6951972 73.79744952 13.56430749 74.91015625 12.4296875 C75.51730469 11.81351563 76.12445313 11.19734375 76.75 10.5625 C77.60464844 9.69044922 77.60464844 9.69044922 78.4765625 8.80078125 C81.69674914 5.77136396 84.34629639 4.50235899 88.81640625 4.6171875 C97.00323638 6.86129322 105.93098138 18.03813854 110.28125 25.13671875 C112.1808582 29.89453372 112.25343064 34.85871172 112.27026367 39.92285156 C112.27664352 41.23151184 112.28302338 42.54017212 112.28959656 43.88848877 C112.29112583 45.30586713 112.29223947 46.723246 112.29296875 48.140625 C112.29618683 49.61025016 112.29955131 51.079875 112.30305481 52.54949951 C112.30902916 55.62594342 112.31089652 58.7023593 112.31030273 61.77880859 C112.31020136 65.69675199 112.32383536 69.61451315 112.34107494 73.53241348 C112.35226411 76.56783859 112.35421981 79.60322064 112.35369301 82.63866425 C112.35486343 84.08177059 112.3592317 85.5248784 112.36702538 86.96796417 C112.46148772 106.26931722 112.46148772 106.26931722 108.4375 113.125 C100.99253225 119.96632171 93.41870561 120.53170884 83.65234375 120.48046875 C79.07246031 120.18122941 75.31491165 119.03510585 71.125 117.25 C69.64 116.755 69.64 116.755 68.125 116.25 C67.2278125 117.4565625 67.2278125 117.4565625 66.3125 118.6875 C64.125 121.25 64.125 121.25 61.125 122.25 C58.82173169 122.35004779 56.51563482 122.38832251 54.21020508 122.39526367 C53.51060669 122.39862228 52.8110083 122.4019809 52.09020996 122.40544128 C49.77496569 122.41494694 47.45979383 122.41689456 45.14453125 122.41796875 C43.53130565 122.42118288 41.91808034 122.42454707 40.30485535 122.42805481 C36.91962001 122.43404602 33.53441019 122.43589485 30.14916992 122.43530273 C25.82626809 122.43520141 21.50353158 122.44882328 17.18066883 122.46607494 C13.84593465 122.47723659 10.51123982 122.47922062 7.17648888 122.47869301 C5.5838025 122.47986802 3.99111493 122.48426274 2.39844704 122.49202538 C0.16110583 122.50190446 -2.07588467 122.49891583 -4.31323242 122.49291992 C-5.58325607 122.49434494 -6.85327972 122.49576996 -8.16178894 122.49723816 C-12.9451079 122.17874859 -18.13940005 121.81763867 -21.8125 118.5 C-24.41442866 112.99003344 -24.02845313 106.80052123 -24.03613281 100.83569336 C-24.04109772 99.90650589 -24.04606262 98.97731842 -24.05117798 98.01997375 C-24.06573086 94.95992279 -24.07258817 91.89992357 -24.078125 88.83984375 C-24.0838797 86.70805358 -24.08963739 84.57626342 -24.09539795 82.44447327 C-24.10588666 77.98177856 -24.11174405 73.51910177 -24.11523438 69.05639648 C-24.12073136 63.33760099 -24.14479407 57.61904211 -24.17320633 51.90032101 C-24.19182004 47.50028282 -24.19703752 43.10030197 -24.19857025 38.70022774 C-24.20159739 36.59149436 -24.20962795 34.482762 -24.22275543 32.37406731 C-24.23979808 29.4274976 -24.23794059 26.48151102 -24.23144531 23.53491211 C-24.24526749 22.22950974 -24.24526749 22.22950974 -24.2593689 20.8977356 C-24.22699461 16.2125675 -23.99068233 13.00966112 -20.875 9.25 C-16.40340513 6.80327828 -12.9561614 5.8782077 -7.875 6.25 C-7.441875 5.321875 -7.441875 5.321875 -7 4.375 C-5.02140849 0.63766049 -4.36267619 0.28146298 0 0 Z M82.125 98.25 C82.125 98.91 82.125 99.57 82.125 100.25 C85.425 100.25 88.725 100.25 92.125 100.25 C92.125 99.59 92.125 98.93 92.125 98.25 C88.825 98.25 85.525 98.25 82.125 98.25 Z " fill="#FCFCFC" transform="translate(31.875,12.75)"/>
<path d="M0 0 C3.17896475 0.06935923 5.42117618 0.44745079 8.125 2.25 C9.115 1.59 10.105 0.93 11.125 0.25 C19.3423913 -0.27173913 19.3423913 -0.27173913 23.125 2.25 C24.115 1.59 25.105 0.93 26.125 0.25 C30.6847248 -0.08775739 34.0032921 0.25159617 38.125 2.25 C38.785 1.59 39.445 0.93 40.125 0.25 C44.86775933 -0.21650092 47.05360438 -0.41962226 51.125 2.125 C53.125 4.25 53.125 4.25 53.125 6.25 C53.71667969 6.27578125 54.30835937 6.3015625 54.91796875 6.328125 C60.17481899 6.70545193 63.30248357 7.30802993 67.125 11.25 C68.47939668 13.95879335 68.19001451 16.25933268 68.125 19.25 C68.805625 18.569375 69.48625 17.88875 70.1875 17.1875 C70.63996094 16.73632812 71.09242187 16.28515625 71.55859375 15.8203125 C72.68091026 14.6951972 73.79744952 13.56430749 74.91015625 12.4296875 C75.51730469 11.81351563 76.12445313 11.19734375 76.75 10.5625 C77.60464844 9.69044922 77.60464844 9.69044922 78.4765625 8.80078125 C81.69674914 5.77136396 84.34629639 4.50235899 88.81640625 4.6171875 C97.00323638 6.86129322 105.93098138 18.03813854 110.28125 25.13671875 C112.1808582 29.89453372 112.25343064 34.85871172 112.27026367 39.92285156 C112.27664352 41.23151184 112.28302338 42.54017212 112.28959656 43.88848877 C112.29112583 45.30586713 112.29223947 46.723246 112.29296875 48.140625 C112.29618683 49.61025016 112.29955131 51.079875 112.30305481 52.54949951 C112.30902916 55.62594342 112.31089652 58.7023593 112.31030273 61.77880859 C112.31020136 65.69675199 112.32383536 69.61451315 112.34107494 73.53241348 C112.35226411 76.56783859 112.35421981 79.60322064 112.35369301 82.63866425 C112.35486343 84.08177059 112.3592317 85.5248784 112.36702538 86.96796417 C112.46148772 106.26931722 112.46148772 106.26931722 108.4375 113.125 C100.99253225 119.96632171 93.41870561 120.53170884 83.65234375 120.48046875 C79.07246031 120.18122941 75.31491165 119.03510585 71.125 117.25 C69.64 116.755 69.64 116.755 68.125 116.25 C67.2278125 117.4565625 67.2278125 117.4565625 66.3125 118.6875 C64.125 121.25 64.125 121.25 61.125 122.25 C58.82173169 122.35004779 56.51563482 122.38832251 54.21020508 122.39526367 C53.51060669 122.39862228 52.8110083 122.4019809 52.09020996 122.40544128 C49.77496569 122.41494694 47.45979383 122.41689456 45.14453125 122.41796875 C43.53130565 122.42118288 41.91808034 122.42454707 40.30485535 122.42805481 C36.91962001 122.43404602 33.53441019 122.43589485 30.14916992 122.43530273 C25.82626809 122.43520141 21.50353158 122.44882328 17.18066883 122.46607494 C13.84593465 122.47723659 10.51123982 122.47922062 7.17648888 122.47869301 C5.5838025 122.47986802 3.99111493 122.48426274 2.39844704 122.49202538 C0.16110583 122.50190446 -2.07588467 122.49891583 -4.31323242 122.49291992 C-5.58325607 122.49434494 -6.85327972 122.49576996 -8.16178894 122.49723816 C-12.9451079 122.17874859 -18.13940005 121.81763867 -21.8125 118.5 C-24.41442866 112.99003344 -24.02845313 106.80052123 -24.03613281 100.83569336 C-24.04109772 99.90650589 -24.04606262 98.97731842 -24.05117798 98.01997375 C-24.06573086 94.95992279 -24.07258817 91.89992357 -24.078125 88.83984375 C-24.0838797 86.70805358 -24.08963739 84.57626342 -24.09539795 82.44447327 C-24.10588666 77.98177856 -24.11174405 73.51910177 -24.11523438 69.05639648 C-24.12073136 63.33760099 -24.14479407 57.61904211 -24.17320633 51.90032101 C-24.19182004 47.50028282 -24.19703752 43.10030197 -24.19857025 38.70022774 C-24.20159739 36.59149436 -24.20962795 34.482762 -24.22275543 32.37406731 C-24.23979808 29.4274976 -24.23794059 26.48151102 -24.23144531 23.53491211 C-24.24526749 22.22950974 -24.24526749 22.22950974 -24.2593689 20.8977356 C-24.22699461 16.2125675 -23.99068233 13.00966112 -20.875 9.25 C-16.40340513 6.80327828 -12.9561614 5.8782077 -7.875 6.25 C-7.441875 5.321875 -7.441875 5.321875 -7 4.375 C-5.02140849 0.63766049 -4.36267619 0.28146298 0 0 Z M-0.875 6.25 C-3.24480013 9.20377498 -3.24480013 9.20377498 -2.875 13.25 C-3.71804687 13.23839844 -4.56109375 13.22679687 -5.4296875 13.21484375 C-6.52539062 13.20582031 -7.62109375 13.19679688 -8.75 13.1875 C-10.38582031 13.17009766 -10.38582031 13.17009766 -12.0546875 13.15234375 C-14.82677546 13.05255697 -14.82677546 13.05255697 -16.875 14.25 C-16.898121 27.2711064 -16.91591384 40.29220795 -16.92681217 53.31333065 C-16.93204153 59.35887817 -16.93914014 65.4044117 -16.95043945 71.44995117 C-16.96126645 77.27894288 -16.96727643 83.10792109 -16.96987724 88.93692207 C-16.97173183 91.1661761 -16.97535308 93.39542935 -16.98073006 95.62467766 C-16.98793799 98.73539734 -16.98899105 101.84606049 -16.98852539 104.95678711 C-16.99212067 105.88826569 -16.99571594 106.81974426 -16.99942017 107.77944946 C-17.40658811 111.83599247 -17.40658811 111.83599247 -15.875 115.25 C-13.47151714 115.34496708 -11.09689018 115.37558862 -8.69311523 115.36352539 C-7.5663588 115.36374443 -7.5663588 115.36374443 -6.4168396 115.3639679 C-3.92239541 115.36326863 -1.42802497 115.35547564 1.06640625 115.34765625 C2.79133564 115.34579212 4.51626557 115.34436819 6.24119568 115.34336853 C10.79012503 115.33954297 15.33902267 115.32971238 19.88793945 115.31866455 C24.52620006 115.30845124 29.16446577 115.30387108 33.80273438 115.29882812 C42.91017022 115.28809014 52.01758248 115.27101327 61.125 115.25 C62.84551831 111.80896337 62.27215794 107.84574161 62.27026367 104.05859375 C62.27362228 103.10566437 62.2769809 102.15273499 62.28044128 101.17092896 C62.2899681 98.00977284 62.29189515 94.84866959 62.29296875 91.6875 C62.29617973 89.49796527 62.29954367 87.30843076 62.30305481 85.11889648 C62.30905013 80.52554832 62.31089426 75.93221899 62.31030273 71.33886719 C62.310201 65.44035474 62.32386337 59.54196235 62.34107494 53.64347839 C62.35216812 49.12088461 62.35422278 44.59832011 62.35369301 40.07571411 C62.35487679 37.9003152 62.3593207 35.72491562 62.36702538 33.54953003 C62.37677284 30.51340199 62.37396825 27.47753813 62.36791992 24.44140625 C62.37353943 23.53536652 62.37915894 22.62932678 62.38494873 21.6958313 C62.59398527 16.98941534 62.59398527 16.98941534 60.125 13.25 C56.99685486 13.00639927 56.99685486 13.00639927 53.5 13.125 C51.71722656 13.15207031 51.71722656 13.15207031 49.8984375 13.1796875 C48.52558594 13.21449219 48.52558594 13.21449219 47.125 13.25 C47.125 11.27 47.125 9.29 47.125 7.25 C45.805 6.92 44.485 6.59 43.125 6.25 C40.75519987 9.20377498 40.75519987 9.20377498 41.125 13.25 C38.155 13.25 35.185 13.25 32.125 13.25 C32.125 11.27 32.125 9.29 32.125 7.25 C31.135 6.92 30.145 6.59 29.125 6.25 C28.465 6.58 27.805 6.91 27.125 7.25 C27.125 9.23 27.125 11.21 27.125 13.25 C24.155 13.25 21.185 13.25 18.125 13.25 C18.125 11.6 18.125 9.95 18.125 8.25 C16.805 7.59 15.485 6.93 14.125 6.25 C11.83771266 8.08883881 11.83771266 8.08883881 12 10.875 C12.04125 11.65875 12.0825 12.4425 12.125 13.25 C9.155 13.25 6.185 13.25 3.125 13.25 C3.125 11.6 3.125 9.95 3.125 8.25 C1.805 7.59 0.485 6.93 -0.875 6.25 Z M82.125 98.25 C82.125 98.91 82.125 99.57 82.125 100.25 C85.425 100.25 88.725 100.25 92.125 100.25 C92.125 99.59 92.125 98.93 92.125 98.25 C88.825 98.25 85.525 98.25 82.125 98.25 Z " fill="#FEFEFE" transform="translate(31.875,12.75)"/>
<path d="M0 0 C4.19001615 1.63562076 6.98233899 4.72303156 10.0625 7.875 C10.59166016 8.40480469 11.12082031 8.93460938 11.66601562 9.48046875 C13.13725212 10.96831895 14.59616298 12.44824674 16 14 C16.77314293 14.81255501 16.77314293 14.81255501 17.56190491 15.64152527 C19.56601147 18.92825833 19.38118572 21.42337171 19.38818359 25.25952148 C19.39344055 25.98359192 19.39869751 26.70766235 19.40411377 27.45367432 C19.4172985 29.84303473 19.40858057 32.23172676 19.3984375 34.62109375 C19.4004589 36.28491849 19.4033709 37.94874237 19.40713501 39.61256409 C19.41155646 43.09864746 19.40513398 46.5845001 19.39111328 50.07055664 C19.37403467 54.53396986 19.38385509 58.99684136 19.40183067 63.46023464 C19.41268475 66.89610353 19.40921451 70.33184457 19.4014473 73.76771736 C19.39944908 75.41311775 19.40189125 77.05852982 19.40888596 78.70391655 C19.41652586 81.00661716 19.40486103 83.30844796 19.38818359 85.61108398 C19.38579681 86.92028305 19.38341003 88.22948212 19.38095093 89.57835388 C18.88210046 94.0589566 17.39862348 96.64960492 14.1875 99.75 C7.91353892 103.33512062 -1.02383175 102.5792785 -8 102 C-11.00319157 101.08861097 -11.74795546 100.37377667 -14 98 C-16.49160419 93.06021972 -17.39006049 89.37674995 -17.48339844 83.77050781 C-17.49829315 83.08489777 -17.51318787 82.39928772 -17.52853394 81.69290161 C-17.57200361 79.4462143 -17.59273545 77.20016203 -17.609375 74.953125 C-17.61785713 74.17892967 -17.62633926 73.40473434 -17.63507843 72.60707855 C-17.67989634 68.50950612 -17.7076831 64.41224615 -17.72070312 60.31445312 C-17.73713397 56.10957565 -17.80919357 51.90762465 -17.89461899 47.70366287 C-17.95085072 44.44508851 -17.96613285 41.18720279 -17.97071075 37.92818451 C-17.97971438 36.37968705 -18.00354222 34.83119427 -18.0432663 33.28318024 C-18.27100369 23.72618833 -17.26188213 17.55010549 -10.37969971 10.28118896 C-9.5943988 9.52839661 -8.8090979 8.77560425 -8 8 C-7.19109314 7.1686554 -6.38218628 6.33731079 -5.54876709 5.48077393 C-3.73220236 3.61515969 -1.88672634 1.79418935 0 0 Z M-4 87 C-4 87.66 -4 88.32 -4 89 C-0.7 89 2.6 89 6 89 C6 88.34 6 87.68 6 87 C2.7 87 -0.6 87 -4 87 Z " fill="#070707" transform="translate(118,24)"/>
<path d="M0 0 C1.32 0.66 2.64 1.32 4 2 C4 3.65 4 5.3 4 7 C6.97 7 9.94 7 13 7 C13 5.35 13 3.7 13 2 C14.32 1.34 15.64 0.68 17 0 C19 2 19 2 19.125 4.625 C19.08375 5.40875 19.0425 6.1925 19 7 C21.97 7 24.94 7 28 7 C28 5.02 28 3.04 28 1 C28.99 0.67 29.98 0.34 31 0 C31.66 0.33 32.32 0.66 33 1 C33 2.98 33 4.96 33 7 C35.97 7 38.94 7 42 7 C42.33 5.02 42.66 3.04 43 1 C43.99 0.67 44.98 0.34 46 0 C46.66 0.33 47.32 0.66 48 1 C48 2.98 48 4.96 48 7 C49.37285156 6.96519531 49.37285156 6.96519531 50.7734375 6.9296875 C51.96195312 6.91164063 53.15046875 6.89359375 54.375 6.875 C55.55835937 6.85179687 56.74171875 6.82859375 57.9609375 6.8046875 C61 7 61 7 63 9 C63.19374841 12.09346964 63.26211143 15.0971374 63.24291992 18.19140625 C63.24481827 19.14433563 63.24671661 20.09726501 63.24867249 21.07907104 C63.25238803 24.24029677 63.24166495 27.40129457 63.23046875 30.5625 C63.22927727 32.75203423 63.22882372 34.94156898 63.2290802 37.13110352 C63.22751399 41.72447907 63.2192138 46.31777683 63.20581055 50.91113281 C63.18882054 56.80961707 63.18499613 62.70801575 63.18575573 68.60652161 C63.18548426 73.12911807 63.18000671 77.65169568 63.17275429 82.17428589 C63.16956405 84.34967913 63.16759939 86.52507452 63.16686058 88.70046997 C63.16470078 91.7365485 63.1559643 94.7725349 63.14526367 97.80859375 C63.14571686 98.71463348 63.14617004 99.62067322 63.14663696 100.5541687 C63.11447611 106.77104778 63.11447611 106.77104778 62 109 C51.97772237 109.0231241 41.95545103 109.04091543 31.9331522 109.05181217 C27.27988814 109.05704085 22.62664226 109.06413823 17.97338867 109.07543945 C13.48655454 109.08626886 8.99973796 109.09227695 4.51289177 109.09487724 C2.79719707 109.0967314 1.08150338 109.10035182 -0.63418388 109.10573006 C-3.02884913 109.11294121 -5.42344096 109.11399091 -7.81811523 109.11352539 C-8.89273262 109.1189183 -8.89273262 109.1189183 -9.98905945 109.12442017 C-14.88594784 109.11405216 -14.88594784 109.11405216 -16 108 C-16.09533653 104.8949275 -16.12551126 101.81213542 -16.11352539 98.70678711 C-16.11367142 97.73128403 -16.11381744 96.75578094 -16.1139679 95.75071716 C-16.11326833 92.50957047 -16.10547391 89.26848046 -16.09765625 86.02734375 C-16.09579222 83.78674857 -16.09436825 81.54615298 -16.09336853 79.30555725 C-16.08954213 73.3954049 -16.0797108 67.48527695 -16.06866455 61.57513428 C-16.05845306 55.54944183 -16.05387147 49.52374547 -16.04882812 43.49804688 C-16.03808864 31.66535384 -16.02101076 19.83267894 -16 8 C-13.23547967 6.61773984 -10.9538637 6.90474613 -7.875 6.9375 C-6.77929688 6.94652344 -5.68359375 6.95554687 -4.5546875 6.96484375 C-3.71164063 6.97644531 -2.86859375 6.98804688 -2 7 C-1.855625 6.030625 -1.71125 5.06125 -1.5625 4.0625 C-1 1 -1 1 0 0 Z M-11 13 C-11 42.7 -11 72.4 -11 103 C22.66 103.495 22.66 103.495 57 104 C57 73.97 57 43.94 57 13 C54.03 13 51.06 13 48 13 C48 14.98 48 16.96 48 19 C46.35 19.33 44.7 19.66 43 20 C42.505 16.535 42.505 16.535 42 13 C39.03 13 36.06 13 33 13 C33 15.31 33 17.62 33 20 C31.35 20 29.7 20 28 20 C28 17.69 28 15.38 28 13 C25.03 13 22.06 13 19 13 C18.67 15.31 18.34 17.62 18 20 C16.68 19.67 15.36 19.34 14 19 C13.67 17.02 13.34 15.04 13 13 C10.03 13 7.06 13 4 13 C4 14.98 4 16.96 4 19 C2.35 19.33 0.7 19.66 -1 20 C-1.33 17.69 -1.66 15.38 -2 13 C-4.97 13 -7.94 13 -11 13 Z " fill="#070707" transform="translate(31,19)"/>
<path d="M0 0 C2.97 0 5.94 0 9 0 C9 16.5 9 33 9 50 C6.03 50 3.06 50 0 50 C0 33.5 0 17 0 0 Z " fill="#FFFFFF" transform="translate(122,48)"/>
<path d="M0 0 C2.97 0 5.94 0 9 0 C9 16.5 9 33 9 50 C6.03 50 3.06 50 0 50 C0 33.5 0 17 0 0 Z " fill="#FFFFFF" transform="translate(107,48)"/>
<path d="M0 0 C7.92 0 15.84 0 24 0 C24.37152726 12.50808438 24.37152726 12.50808438 22.73950195 14.66894531 C19.5652011 17.09789805 15.85300249 16.47081999 12 16.4375 C10.77023438 16.4674707 10.77023438 16.4674707 9.515625 16.49804688 C8.33226563 16.49708008 8.33226563 16.49708008 7.125 16.49609375 C6.40570313 16.49794678 5.68640625 16.4997998 4.9453125 16.50170898 C3 16 3 16 0 12 C0 8.04 0 4.08 0 0 Z M7 7 C7 7.66 7 8.32 7 9 C10.3 9 13.6 9 17 9 C17 8.34 17 7.68 17 7 C13.7 7 10.4 7 7 7 Z " fill="#FDFDFD" transform="translate(107,104)"/>
<path d="M0 0 C15.84 0 31.68 0 48 0 C48.495 1.98 48.495 1.98 49 4 C48 5 48 5 46.05747986 5.12025452 C45.20698563 5.11803391 44.35649139 5.11581329 43.48022461 5.11352539 C42.03884377 5.11341209 42.03884377 5.11341209 40.56834412 5.11329651 C39.523564 5.10813522 38.47878387 5.10297394 37.40234375 5.09765625 C36.33834854 5.0962413 35.27435333 5.09482635 34.17811584 5.09336853 C30.76454917 5.08775064 27.351047 5.07519511 23.9375 5.0625 C21.62955824 5.05748731 19.32161545 5.052924 17.01367188 5.04882812 C11.34242574 5.0377754 5.67121747 5.02101987 0 5 C-0.33 4.01 -0.66 3.02 -1 2 C-0.67 1.34 -0.34 0.68 0 0 Z " fill="#151515" transform="translate(30,100)"/>
<path d="M0 0 C-0.33 1.32 -0.66 2.64 -1 4 C-17.04061055 5.58705687 -32.94564259 5.1380304 -49 4 C-49 2.68 -49 1.36 -49 0 C-32.8477454 -1.94521776 -16.16825593 -1.56918948 0 0 Z " fill="#0B0B0B" transform="translate(79,54)"/>
<path d="M0 0 C0 1.32 0 2.64 0 4 C-14.46958381 5.01668343 -28.53041619 5.01668343 -43 4 C-43 2.68 -43 1.36 -43 0 C-28.53041619 -1.01668343 -14.46958381 -1.01668343 0 0 Z " fill="#060606" transform="translate(73,85)"/>
<path d="M0 0 C1.34362885 0.00031689 2.68728332 0.01162897 4.03076172 0.03173828 C4.73820526 0.03456818 5.4456488 0.03739807 6.17453003 0.04031372 C8.43667432 0.05151941 10.69842437 0.07662399 12.96044922 0.10205078 C14.49299559 0.11208011 16.02554816 0.12120604 17.55810547 0.12939453 C21.31737223 0.15145992 25.07634386 0.18599183 28.83544922 0.22705078 C29.49544922 1.54705078 30.15544922 2.86705078 30.83544922 4.22705078 C28.83544922 6.22705078 28.83544922 6.22705078 26.5480957 6.4699707 C25.6103833 6.46586182 24.6726709 6.46175293 23.70654297 6.45751953 C22.67078125 6.45558594 21.63501953 6.45365234 20.56787109 6.45166016 C19.48054688 6.43941406 18.39322266 6.42716797 17.27294922 6.41455078 C16.21269531 6.41390625 15.15244141 6.41326172 14.06005859 6.41259766 C7.90859268 6.37844393 1.93465559 6.02705162 -4.16455078 5.22705078 C-4.49455078 4.23705078 -4.82455078 3.24705078 -5.16455078 2.22705078 C-3.16455078 0.22705078 -3.16455078 0.22705078 0 0 Z " fill="#1D1D1D" transform="translate(34.16455078125,68.77294921875)"/>
<path d="M0 0 C3.42527887 1.47348708 5.64955058 3.40907846 8.25 6.0625 C8.95640625 6.77535156 9.6628125 7.48820312 10.390625 8.22265625 C12 10 12 10 12 11 C5.07 11 -1.86 11 -9 11 C-6.06734837 6.60102255 -3.73680173 3.52920163 0 0 Z " fill="#FEFEFE" transform="translate(118,32)"/>
</svg>
